<svg version="1.2" xmlns="http://www.w3.org/2000/svg" viewBox="0 0 512 512" width="512" height="512">
	<title>pfpIcon-svg</title>
	<style>
		.s0 { fill: none;stroke: #ffffff;stroke-miterlimit:100;stroke-width: 15 } 
		.s1 { fill: #ffffff } 
	</style>
	<path id="Camada 1" fill-rule="evenodd" class="s0" d="m256.3 496.5c63.7 0 124.8-25.3 169.8-70.4 45.1-45 70.4-106.1 70.4-169.9 0-63.7-25.3-124.8-70.4-169.8-45-45.1-106.1-70.4-169.9-70.4-63.7 0-124.8 25.3-169.8 70.4-45.1 45-70.4 106.1-70.4 169.8 0 63.8 25.3 124.9 70.4 169.9 45 45.1 106.1 70.4 169.8 70.4z"/>
	<path id="Forma 2" fill-rule="evenodd" class="s1" d="m272.1 167.3c0-8.9-7.2-16.2-16.1-16.2-8.9 0-16.1 7.3-16.1 16.2v72.6h-72.6c-8.9 0-16.2 7.2-16.2 16.1 0 8.9 7.3 16.1 16.2 16.1h72.6v72.7c0 8.9 7.2 16.1 16.1 16.1 8.9 0 16.1-7.2 16.1-16.1v-72.7h72.7c8.9 0 16.1-7.2 16.1-16.1 0-8.9-7.2-16.1-16.1-16.1h-72.7z"/>
</svg>